<svg id="Group_27745" data-name="Group 27745" xmlns="http://www.w3.org/2000/svg" width="284.165" height="225.96" viewBox="0 0 284.165 225.96">
  <path id="Path_68" data-name="Path 68" d="M688.7,290.062a27.121,27.121,0,1,0-27.12,27.121A27.154,27.154,0,0,0,688.7,290.062Zm-27.12,12.718A12.718,12.718,0,1,1,674.3,290.062,12.73,12.73,0,0,1,661.584,302.78Z" transform="translate(-556.927 -218.787)" fill="#2e2842"/>
  <path id="Path_69" data-name="Path 69" d="M900.141,404.4c2.228-26.454,4.187-57.19-.71-87.269-3.606-22.133-13.165-37.664-28.423-46.162-18.546-10.332-39.306-12.363-59.384-14.322l-4.008-.394a465.94,465.94,0,0,0-120.458,3.14c-7.643,1.176-17.634,2.962-27.154,6.4-11.379,4.1-19.886,9.708-26,17.125-10.139,12.286-12.3,28.139-13.543,42.038-1.287,14.471-2.531,31.653-2.031,49.388.187,6.616.442,14.326,1.094,22.042,1.258,14.883,4.029,33.991,14.356,49.811,13.8,21.134,36.723,26.113,52.769,28.014,23.928,2.838,47.381,5.387,71.227,5.493.514,0,1.028,0,1.542,0,21.192,0,43.9-1.873,71.272-5.872,18.388-2.684,37.227-6.784,50.439-18.517a49.12,49.12,0,0,0,13.751-21.35,6.745,6.745,0,0,0,.393-1.172C898.192,423.782,899.334,414.007,900.141,404.4Zm-71.535,55.183c-27.318,3.99-49.782,5.646-70.672,5.718-23.093-.106-46.1-2.607-69.6-5.387-18.762-2.228-31.144-7.706-39.359-17.514l38.807-38.807c4.6-4.609,12.755-4.479,17.12-.129,3.284,3.456,32.253,33.9,37.083,38.254a7.2,7.2,0,0,0,9.645-10.7c-3.74-3.371-27.466-28.2-36.416-37.607a26.595,26.595,0,0,0-37.616,0l-36.229,36.224c-4.893-11.35-6.621-24.029-7.5-34.462-.619-7.346-.864-14.811-1.046-21.23-.48-17,.729-33.655,1.977-47.708,1.1-12.286,2.79-25.042,10.3-34.15,4.431-5.368,10.908-9.535,19.789-12.742h0c8.35-3.015,17.452-4.638,24.452-5.714a460.142,460.142,0,0,1,70.235-5.478,450.657,450.657,0,0,1,46.575,2.429l4.066.4c18.613,1.815,37.851,3.7,53.776,12.569,11.215,6.246,18.355,18.326,21.216,35.893,4.633,28.461,2.727,58.15.576,83.745-.384,4.561-.85,9.031-1.522,13.342L814.817,346.96a26.425,26.425,0,0,0-18.811-7.812h-.02a26.4,26.4,0,0,0-18.805,7.792l-42.629,42.623a7.2,7.2,0,0,0,10.188,10.183l42.624-42.624a12.115,12.115,0,0,1,8.622-3.572H796a12.113,12.113,0,0,1,8.627,3.582l75.319,75.444a33.472,33.472,0,0,1-8.378,11.969C860.662,454.225,843.676,457.379,828.606,459.578Z" transform="translate(-618.313 -253.744)" fill="#2e2842"/>
</svg>
